<svg xmlns="http://www.w3.org/2000/svg" width="256" height="256" viewBox="0 0 256 256"><rect x="20" y="20" width="216" height="216" rx="48" fill="#ffffff" stroke="#e4e4e7" stroke-width="2"></rect><line x1="48" y1="128" x2="208" y2="128" stroke="#71717a" stroke-width="1" stroke-dasharray="2 4" opacity="0.5"></line><line x1="128" y1="48" x2="128" y2="208" stroke="#71717a" stroke-width="1" stroke-dasharray="2 4" opacity="0.25"></line><g stroke="#3B82F6" stroke-linecap="round"><line x1="128" y1="128" x2="128" y2="40" stroke-width="5"></line><line x1="112" y1="128" x2="112" y2="68" stroke-width="4"></line><line x1="144" y1="128" x2="144" y2="68" stroke-width="4"></line><line x1="96" y1="128" x2="96" y2="92" stroke-width="3"></line><line x1="160" y1="128" x2="160" y2="92" stroke-width="3"></line><line x1="80" y1="128" x2="80" y2="104" stroke-width="3"></line><line x1="176" y1="128" x2="176" y2="104" stroke-width="3"></line><line x1="64" y1="128" x2="64" y2="116" stroke-width="3"></line><line x1="192" y1="128" x2="192" y2="116" stroke-width="3"></line></g><g stroke="#0a0c10" stroke-linecap="round" opacity="0.7"><line x1="128" y1="128" x2="128" y2="216" stroke-width="5"></line><line x1="112" y1="128" x2="112" y2="188" stroke-width="4"></line><line x1="144" y1="128" x2="144" y2="188" stroke-width="4"></line><line x1="96" y1="128" x2="96" y2="164" stroke-width="3"></line><line x1="160" y1="128" x2="160" y2="164" stroke-width="3"></line><line x1="80" y1="128" x2="80" y2="152" stroke-width="3"></line><line x1="176" y1="128" x2="176" y2="152" stroke-width="3"></line><line x1="64" y1="128" x2="64" y2="140" stroke-width="3"></line><line x1="192" y1="128" x2="192" y2="140" stroke-width="3"></line></g><circle cx="128" cy="40" r="5" fill="#3B82F6"></circle><circle cx="128" cy="216" r="5" fill="#3B82F6" opacity="0.7"></circle></svg>